<mxfile host="app.diagrams.net" modified="2024-05-05T09:49:38.569Z" agent="Mozilla/5.0 (Windows NT 10.0; Win64; x64) AppleWebKit/537.36 (KHTML, like Gecko) Chrome/124.0.0.0 Safari/537.36" etag="VOA_n0-3HBEVzqnzyika" version="24.3.1" type="device">
  <diagram id="RAGtzLFKwbdUckXWn4iN" name="Halaman-1">
    <mxGraphModel dx="880" dy="434" grid="1" gridSize="10" guides="1" tooltips="1" connect="1" arrows="1" fold="1" page="1" pageScale="1" pageWidth="827" pageHeight="1169" math="0" shadow="0">
      <root>
        <mxCell id="0" />
        <mxCell id="1" parent="0" />
        <mxCell id="K_lp6_0wbMEvAcMGEVY7-65" value="&lt;div&gt;&lt;/div&gt;" style="shape=umlLifeline;perimeter=lifelinePerimeter;whiteSpace=wrap;html=1;container=1;dropTarget=0;collapsible=0;recursiveResize=0;outlineConnect=0;portConstraint=eastwest;newEdgeStyle={&quot;curved&quot;:0,&quot;rounded&quot;:0};participant=umlActor;size=40;" parent="1" vertex="1">
          <mxGeometry x="220" y="90" width="20" height="340" as="geometry" />
        </mxCell>
        <mxCell id="OxrHae_57oYZ9077EPSq-14" value="" style="html=1;points=[[0,0,0,0,5],[0,1,0,0,-5],[1,0,0,0,5],[1,1,0,0,-5]];perimeter=orthogonalPerimeter;outlineConnect=0;targetShapes=umlLifeline;portConstraint=eastwest;newEdgeStyle={&quot;curved&quot;:0,&quot;rounded&quot;:0};" parent="K_lp6_0wbMEvAcMGEVY7-65" vertex="1">
          <mxGeometry x="5" y="70" width="10" height="150" as="geometry" />
        </mxCell>
        <mxCell id="K_lp6_0wbMEvAcMGEVY7-67" value="&lt;div&gt;Pengguna&lt;/div&gt;" style="text;html=1;align=center;verticalAlign=middle;resizable=0;points=[];autosize=1;strokeColor=none;fillColor=none;" parent="1" vertex="1">
          <mxGeometry x="190" y="60" width="80" height="30" as="geometry" />
        </mxCell>
        <mxCell id="K_lp6_0wbMEvAcMGEVY7-68" value="" style="shape=umlLifeline;perimeter=lifelinePerimeter;whiteSpace=wrap;html=1;container=1;dropTarget=0;collapsible=0;recursiveResize=0;outlineConnect=0;portConstraint=eastwest;newEdgeStyle={&quot;curved&quot;:0,&quot;rounded&quot;:0};participant=umlBoundary;" parent="1" vertex="1">
          <mxGeometry x="569" y="90" width="50" height="300" as="geometry" />
        </mxCell>
        <mxCell id="K_lp6_0wbMEvAcMGEVY7-100" value="" style="html=1;points=[[0,0,0,0,5],[0,1,0,0,-5],[1,0,0,0,5],[1,1,0,0,-5]];perimeter=orthogonalPerimeter;outlineConnect=0;targetShapes=umlLifeline;portConstraint=eastwest;newEdgeStyle={&quot;curved&quot;:0,&quot;rounded&quot;:0};" parent="K_lp6_0wbMEvAcMGEVY7-68" vertex="1">
          <mxGeometry x="20" y="305" width="10" height="30" as="geometry" />
        </mxCell>
        <mxCell id="K_lp6_0wbMEvAcMGEVY7-72" value="&lt;div&gt;Scene &lt;br&gt;Character Selection&lt;/div&gt;" style="text;html=1;align=center;verticalAlign=middle;resizable=0;points=[];autosize=1;strokeColor=none;fillColor=none;" parent="1" vertex="1">
          <mxGeometry x="529" y="50" width="130" height="40" as="geometry" />
        </mxCell>
        <mxCell id="K_lp6_0wbMEvAcMGEVY7-75" value="Sequence Diagram Start Game" style="shape=umlFrame;whiteSpace=wrap;html=1;pointerEvents=0;width=180;height=20;align=left;" parent="1" vertex="1">
          <mxGeometry x="180" y="30" width="730" height="420" as="geometry" />
        </mxCell>
        <mxCell id="K_lp6_0wbMEvAcMGEVY7-77" value="" style="shape=umlLifeline;perimeter=lifelinePerimeter;whiteSpace=wrap;html=1;container=1;dropTarget=0;collapsible=0;recursiveResize=0;outlineConnect=0;portConstraint=eastwest;newEdgeStyle={&quot;curved&quot;:0,&quot;rounded&quot;:0};participant=umlBoundary;" parent="1" vertex="1">
          <mxGeometry x="459" y="90" width="50" height="340" as="geometry" />
        </mxCell>
        <mxCell id="K_lp6_0wbMEvAcMGEVY7-97" value="" style="html=1;points=[[0,0,0,0,5],[0,1,0,0,-5],[1,0,0,0,5],[1,1,0,0,-5]];perimeter=orthogonalPerimeter;outlineConnect=0;targetShapes=umlLifeline;portConstraint=eastwest;newEdgeStyle={&quot;curved&quot;:0,&quot;rounded&quot;:0};" parent="K_lp6_0wbMEvAcMGEVY7-77" vertex="1">
          <mxGeometry x="20" y="258" width="10" height="30" as="geometry" />
        </mxCell>
        <mxCell id="K_lp6_0wbMEvAcMGEVY7-80" value="&lt;div&gt;Scene &lt;br&gt;Gameplay&lt;/div&gt;" style="text;html=1;align=center;verticalAlign=middle;resizable=0;points=[];autosize=1;strokeColor=none;fillColor=none;" parent="1" vertex="1">
          <mxGeometry x="444" y="50" width="80" height="40" as="geometry" />
        </mxCell>
        <mxCell id="K_lp6_0wbMEvAcMGEVY7-82" value="&lt;div&gt;Data PlayerPrefs&lt;/div&gt;" style="text;html=1;align=center;verticalAlign=middle;resizable=0;points=[];autosize=1;strokeColor=none;fillColor=none;" parent="1" vertex="1">
          <mxGeometry x="793" y="61" width="110" height="30" as="geometry" />
        </mxCell>
        <mxCell id="K_lp6_0wbMEvAcMGEVY7-83" value="" style="shape=umlLifeline;perimeter=lifelinePerimeter;whiteSpace=wrap;html=1;container=1;dropTarget=0;collapsible=0;recursiveResize=0;outlineConnect=0;portConstraint=eastwest;newEdgeStyle={&quot;curved&quot;:0,&quot;rounded&quot;:0};participant=umlEntity;" parent="1" vertex="1">
          <mxGeometry x="828" y="90" width="40" height="340" as="geometry" />
        </mxCell>
        <mxCell id="K_lp6_0wbMEvAcMGEVY7-88" value="" style="html=1;points=[[0,0,0,0,5],[0,1,0,0,-5],[1,0,0,0,5],[1,1,0,0,-5]];perimeter=orthogonalPerimeter;outlineConnect=0;targetShapes=umlLifeline;portConstraint=eastwest;newEdgeStyle={&quot;curved&quot;:0,&quot;rounded&quot;:0};" parent="K_lp6_0wbMEvAcMGEVY7-83" vertex="1">
          <mxGeometry x="15" y="150" width="10" height="71" as="geometry" />
        </mxCell>
        <mxCell id="K_lp6_0wbMEvAcMGEVY7-84" value="" style="shape=umlLifeline;perimeter=lifelinePerimeter;whiteSpace=wrap;html=1;container=1;dropTarget=0;collapsible=0;recursiveResize=0;outlineConnect=0;portConstraint=eastwest;newEdgeStyle={&quot;curved&quot;:0,&quot;rounded&quot;:0};participant=umlControl;" parent="1" vertex="1">
          <mxGeometry x="706" y="91" width="40" height="340" as="geometry" />
        </mxCell>
        <mxCell id="K_lp6_0wbMEvAcMGEVY7-87" value="" style="html=1;points=[[0,0,0,0,5],[0,1,0,0,-5],[1,0,0,0,5],[1,1,0,0,-5]];perimeter=orthogonalPerimeter;outlineConnect=0;targetShapes=umlLifeline;portConstraint=eastwest;newEdgeStyle={&quot;curved&quot;:0,&quot;rounded&quot;:0};" parent="K_lp6_0wbMEvAcMGEVY7-84" vertex="1">
          <mxGeometry x="15" y="150" width="10" height="178" as="geometry" />
        </mxCell>
        <mxCell id="K_lp6_0wbMEvAcMGEVY7-85" value="&lt;div&gt;Proses&lt;/div&gt;" style="text;html=1;align=center;verticalAlign=middle;resizable=0;points=[];autosize=1;strokeColor=none;fillColor=none;" parent="1" vertex="1">
          <mxGeometry x="696" y="60" width="60" height="30" as="geometry" />
        </mxCell>
        <mxCell id="K_lp6_0wbMEvAcMGEVY7-89" style="rounded=0;orthogonalLoop=1;jettySize=auto;html=1;exitX=1;exitY=0;exitDx=0;exitDy=5;exitPerimeter=0;" parent="1" edge="1" target="K_lp6_0wbMEvAcMGEVY7-88">
          <mxGeometry relative="1" as="geometry">
            <mxPoint x="731" y="266" as="sourcePoint" />
            <mxPoint x="859" y="266" as="targetPoint" />
          </mxGeometry>
        </mxCell>
        <mxCell id="K_lp6_0wbMEvAcMGEVY7-91" value="4. Mengambil &lt;br&gt;Data Character()" style="edgeLabel;html=1;align=center;verticalAlign=middle;resizable=0;points=[];fontSize=10;" parent="K_lp6_0wbMEvAcMGEVY7-89" vertex="1" connectable="0">
          <mxGeometry x="-0.1057" y="1" relative="1" as="geometry">
            <mxPoint x="2" y="-14" as="offset" />
          </mxGeometry>
        </mxCell>
        <mxCell id="K_lp6_0wbMEvAcMGEVY7-93" style="rounded=0;orthogonalLoop=1;jettySize=auto;html=1;" parent="1" edge="1" source="K_lp6_0wbMEvAcMGEVY7-88">
          <mxGeometry relative="1" as="geometry">
            <mxPoint x="840" y="307" as="sourcePoint" />
            <mxPoint x="730.9999999999999" y="307" as="targetPoint" />
          </mxGeometry>
        </mxCell>
        <mxCell id="K_lp6_0wbMEvAcMGEVY7-95" value="&lt;span style=&quot;font-size: 10px;&quot;&gt;5. Mengembalikan&lt;br&gt;Data Character()&lt;/span&gt;" style="edgeLabel;html=1;align=center;verticalAlign=middle;resizable=0;points=[];" parent="K_lp6_0wbMEvAcMGEVY7-93" vertex="1" connectable="0">
          <mxGeometry x="0.4078" y="1" relative="1" as="geometry">
            <mxPoint x="19" y="-18" as="offset" />
          </mxGeometry>
        </mxCell>
        <mxCell id="K_lp6_0wbMEvAcMGEVY7-96" value="Alt" style="shape=umlFrame;whiteSpace=wrap;html=1;pointerEvents=0;" parent="1" vertex="1">
          <mxGeometry x="200" y="318" width="670" height="120" as="geometry" />
        </mxCell>
        <mxCell id="K_lp6_0wbMEvAcMGEVY7-102" value="&lt;span style=&quot;font-size: 10px;&quot;&gt;[Sudah Memilih Karakter == true]&lt;/span&gt;" style="edgeLabel;html=1;align=center;verticalAlign=middle;resizable=0;points=[];fontSize=10;" parent="1" vertex="1" connectable="0">
          <mxGeometry x="643.9976190476191" y="336.00000000000006" as="geometry" />
        </mxCell>
        <mxCell id="K_lp6_0wbMEvAcMGEVY7-103" style="edgeStyle=orthogonalEdgeStyle;rounded=0;orthogonalLoop=1;jettySize=auto;html=1;curved=0;" parent="1" target="K_lp6_0wbMEvAcMGEVY7-97" edge="1" source="K_lp6_0wbMEvAcMGEVY7-87">
          <mxGeometry relative="1" as="geometry">
            <mxPoint x="720" y="363" as="sourcePoint" />
            <Array as="points">
              <mxPoint x="660" y="363" />
              <mxPoint x="660" y="363" />
            </Array>
          </mxGeometry>
        </mxCell>
        <mxCell id="K_lp6_0wbMEvAcMGEVY7-104" style="rounded=0;orthogonalLoop=1;jettySize=auto;html=1;" parent="1" edge="1">
          <mxGeometry relative="1" as="geometry">
            <mxPoint x="721" y="414.99999999999994" as="sourcePoint" />
            <mxPoint x="599" y="414.99999999999994" as="targetPoint" />
          </mxGeometry>
        </mxCell>
        <mxCell id="K_lp6_0wbMEvAcMGEVY7-105" value="&lt;span style=&quot;font-size: 10px;&quot;&gt;[&lt;/span&gt;&lt;span style=&quot;font-size: 10px;&quot;&gt;Else&lt;/span&gt;&lt;span style=&quot;font-size: 10px;&quot;&gt;]&lt;/span&gt;" style="edgeLabel;html=1;align=center;verticalAlign=middle;resizable=0;points=[];" parent="1" vertex="1" connectable="0">
          <mxGeometry x="722.9976190476191" y="381.00000000000006" as="geometry">
            <mxPoint x="-21" y="-5" as="offset" />
          </mxGeometry>
        </mxCell>
        <mxCell id="K_lp6_0wbMEvAcMGEVY7-106" value="&lt;span style=&quot;font-size: 10px;&quot;&gt;6.1. Menampilkan Scene Gameplay()&lt;/span&gt;" style="edgeLabel;html=1;align=center;verticalAlign=middle;resizable=0;points=[];fontSize=10;" parent="1" vertex="1" connectable="0">
          <mxGeometry x="634.9976190476191" y="353.00000000000006" as="geometry" />
        </mxCell>
        <mxCell id="K_lp6_0wbMEvAcMGEVY7-107" value="&lt;font style=&quot;font-size: 10px;&quot;&gt;6.2. Menampilkan&amp;nbsp;Scene&amp;nbsp;&lt;/font&gt;&lt;div style=&quot;font-size: 10px;&quot;&gt;&lt;font style=&quot;font-size: 10px;&quot;&gt;Character Selection()&lt;/font&gt;&lt;/div&gt;" style="edgeLabel;html=1;align=center;verticalAlign=middle;resizable=0;points=[];fontSize=10;" parent="1" vertex="1" connectable="0">
          <mxGeometry x="661.9976190476191" y="395.00000000000006" as="geometry" />
        </mxCell>
        <mxCell id="OxrHae_57oYZ9077EPSq-15" value="" style="shape=umlLifeline;perimeter=lifelinePerimeter;whiteSpace=wrap;html=1;container=1;dropTarget=0;collapsible=0;recursiveResize=0;outlineConnect=0;portConstraint=eastwest;newEdgeStyle={&quot;curved&quot;:0,&quot;rounded&quot;:0};participant=umlBoundary;" parent="1" vertex="1">
          <mxGeometry x="344" y="91" width="50" height="339" as="geometry" />
        </mxCell>
        <mxCell id="OxrHae_57oYZ9077EPSq-16" value="" style="html=1;points=[[0,0,0,0,5],[0,1,0,0,-5],[1,0,0,0,5],[1,1,0,0,-5]];perimeter=orthogonalPerimeter;outlineConnect=0;targetShapes=umlLifeline;portConstraint=eastwest;newEdgeStyle={&quot;curved&quot;:0,&quot;rounded&quot;:0};" parent="OxrHae_57oYZ9077EPSq-15" vertex="1">
          <mxGeometry x="20" y="69" width="10" height="91" as="geometry" />
        </mxCell>
        <mxCell id="OxrHae_57oYZ9077EPSq-17" value="" style="html=1;align=left;spacingLeft=2;endArrow=block;rounded=0;edgeStyle=orthogonalEdgeStyle;curved=0;rounded=0;" parent="OxrHae_57oYZ9077EPSq-15" source="OxrHae_57oYZ9077EPSq-16" target="OxrHae_57oYZ9077EPSq-18" edge="1">
          <mxGeometry x="-1" y="22" relative="1" as="geometry">
            <mxPoint x="30" y="102" as="sourcePoint" />
            <Array as="points">
              <mxPoint x="120" y="102" />
              <mxPoint x="120" y="132" />
            </Array>
            <mxPoint x="35" y="132" as="targetPoint" />
            <mxPoint as="offset" />
          </mxGeometry>
        </mxCell>
        <mxCell id="OxrHae_57oYZ9077EPSq-18" value="" style="html=1;points=[[0,0,0,0,5],[0,1,0,0,-5],[1,0,0,0,5],[1,1,0,0,-5]];perimeter=orthogonalPerimeter;outlineConnect=0;targetShapes=umlLifeline;portConstraint=eastwest;newEdgeStyle={&quot;curved&quot;:0,&quot;rounded&quot;:0};" parent="OxrHae_57oYZ9077EPSq-15" vertex="1">
          <mxGeometry x="24" y="120" width="10" height="24" as="geometry" />
        </mxCell>
        <mxCell id="OxrHae_57oYZ9077EPSq-19" value="&lt;div&gt;Scene &lt;br&gt;Main Menu&lt;/div&gt;" style="text;html=1;align=center;verticalAlign=middle;resizable=0;points=[];autosize=1;strokeColor=none;fillColor=none;" parent="1" vertex="1">
          <mxGeometry x="329" y="50" width="80" height="40" as="geometry" />
        </mxCell>
        <mxCell id="OxrHae_57oYZ9077EPSq-20" style="edgeStyle=orthogonalEdgeStyle;rounded=0;orthogonalLoop=1;jettySize=auto;html=1;curved=0;entryX=0;entryY=0;entryDx=0;entryDy=5;entryPerimeter=0;exitX=1;exitY=0;exitDx=0;exitDy=5;exitPerimeter=0;" parent="1" edge="1">
          <mxGeometry relative="1" as="geometry">
            <mxPoint x="235" y="167" as="sourcePoint" />
            <mxPoint x="364" y="167" as="targetPoint" />
          </mxGeometry>
        </mxCell>
        <mxCell id="OxrHae_57oYZ9077EPSq-21" value="1. Membuka Aplikasi()" style="edgeLabel;html=1;align=left;verticalAlign=middle;resizable=0;points=[];" parent="OxrHae_57oYZ9077EPSq-20" vertex="1" connectable="0">
          <mxGeometry x="-0.3304" y="1" relative="1" as="geometry">
            <mxPoint x="-38" y="-8" as="offset" />
          </mxGeometry>
        </mxCell>
        <mxCell id="OxrHae_57oYZ9077EPSq-22" value="&lt;span style=&quot;font-size: 10px;&quot;&gt;2. Menampilkan&amp;nbsp;&lt;/span&gt;&lt;div&gt;&lt;span style=&quot;font-size: 10px;&quot;&gt;Scene&amp;nbsp;&lt;/span&gt;&lt;span style=&quot;font-size: 10px;&quot;&gt;Main Menu()&lt;/span&gt;&lt;/div&gt;" style="edgeLabel;html=1;align=left;verticalAlign=middle;resizable=0;points=[];" parent="OxrHae_57oYZ9077EPSq-20" vertex="1" connectable="0">
          <mxGeometry x="-0.3304" y="1" relative="1" as="geometry">
            <mxPoint x="97" y="11" as="offset" />
          </mxGeometry>
        </mxCell>
        <mxCell id="OxrHae_57oYZ9077EPSq-24" style="edgeStyle=orthogonalEdgeStyle;rounded=0;orthogonalLoop=1;jettySize=auto;html=1;curved=0;" parent="1" edge="1">
          <mxGeometry relative="1" as="geometry">
            <Array as="points">
              <mxPoint x="370" y="266" />
              <mxPoint x="370" y="266" />
            </Array>
            <mxPoint x="235" y="266" as="sourcePoint" />
            <mxPoint x="722" y="266" as="targetPoint" />
          </mxGeometry>
        </mxCell>
        <mxCell id="OxrHae_57oYZ9077EPSq-25" value="3. Menekan Tombol Start Game()" style="edgeLabel;html=1;align=left;verticalAlign=middle;resizable=0;points=[];" parent="1" vertex="1" connectable="0">
          <mxGeometry x="393.99666666666656" y="255.99999999999977" as="geometry" />
        </mxCell>
      </root>
    </mxGraphModel>
  </diagram>
</mxfile>
